<svg xmlns="http://www.w3.org/2000/svg" width="274.421" height="47.477" viewBox="0 0 274.421 47.477"><defs><style>.a{fill:#1c1c1c;}.b{fill:#a5d5bb;}</style></defs><g transform="translate(-161.097 -265.36)"><path class="a" d="M161.1,310.934v20.411h4.877V315.811h18.517l8.749,15.98,4.206-2.442L187.43,310.934Z" transform="translate(0 -18.954)"/><path class="a" d="M194.443,276.394A10.252,10.252,0,0,0,184.2,266.153H161.1v20.411H184.2A10.342,10.342,0,0,0,194.443,276.394Zm-10.241,5.3H165.974V271.03H184.2a5.33,5.33,0,1,1,0,10.659Z" transform="translate(0 -0.33)"/><path class="a" d="M258.127,266.153h-2.3l-11.04,28.214h24.385Zm-6.2,23.338,5.046-13.246,5.046,13.246Z" transform="translate(-34.803 -0.33)"/><path class="a" d="M238.155,324.292,234.2,335.47l3.931,1.776,2.818-8.078h23.2l2.88,8.075,3.923-1.773-3.958-11.179Z" transform="translate(-30.401 -24.509)"/><path class="a" d="M489.538,266.153h-2.3l-11.04,28.214h24.384Zm-6.2,23.338,5.046-13.246,5.046,13.246Z" transform="translate(-131.044 -0.33)"/><path class="a" d="M469.567,324.292l-3.958,11.179,3.93,1.776,2.818-8.078h23.2l2.88,8.075,3.923-1.773L498.4,324.292Z" transform="translate(-126.642 -24.509)"/><path class="b" d="M359.476,269.039l-3.135-3.679-19.267,15.8-19.266-15.8-3.136,3.679,22.4,18.529Z" transform="translate(-63.87)"/><path class="a" d="M311.543,283.536v36.415h4.877V293.917l19.353,15.906,19.353-15.906v26.034H360V283.536l-24.23,19.946Z" transform="translate(-62.568 -7.559)"/><rect class="a" width="4.877" height="20.412" transform="translate(309.147 291.98)"/><path class="a" d="M447.9,276.394a10.252,10.252,0,0,0-10.241-10.241H414.557v20.411h23.105A10.342,10.342,0,0,0,447.9,276.394Zm-10.241,5.3H419.434V271.03h18.228a5.33,5.33,0,1,1,0,10.659Z" transform="translate(-105.41 -0.33)"/><rect class="b" width="8.534" height="46.569" transform="translate(385.847 265.823)"/><rect class="b" width="8.534" height="46.569" transform="translate(399.56 265.823)"/><rect class="b" width="8.534" height="46.569" transform="translate(413.273 265.823)"/><rect class="b" width="8.534" height="46.569" transform="translate(426.984 265.823)"/></g></svg>