<svg xmlns="http://www.w3.org/2000/svg" width="31.107" height="31.107" viewBox="0 0 31.107 31.107"><path d="M29.929,8.931h-8.11v-1.8h-.9V0H20V7.126h-.9v1.8H12.03v.911H29.551l.644.644V26.55H8.2v.911H30.2v2.09l-.644.644h-28l-.644-.644v-2.09H7.291V26.55H.911V10.487l.644-.644H3.463V8.931H1.178L0,10.109V29.929l1.178,1.178h28.75l1.178-1.178V10.109Zm-9.915,0V8.038h.893v.893Z"/><path d="M77.565,72.658l1.178-1.178v-18.3L77.565,52H73.177L72,53.179v18.3l1.178,1.178Zm-4.654-19.1.644-.644h3.632l.644.644V71.1l-.644.644H73.555L72.91,71.1Z" transform="translate(-67.625 -48.842)"/><path d="M228.939,194.8H214.025v4.557h14.914Zm-.911,3.645H214.936v-2.734h13.091Z" transform="translate(-201.022 -182.963)"/><path d="M227.574,299.8h-2.716v2.716h2.716Zm-.911,1.8h-.893v-.893h.893Z" transform="translate(-211.197 -281.583)"/><path d="M224.857,362.216h2.716V359.5h-2.716Zm.911-1.8h.893v.893h-.893Z" transform="translate(-211.196 -337.658)"/><path d="M287.277,299.8h-2.716v2.716h2.716Zm-.911,1.8h-.893v-.893h.893Z" transform="translate(-267.272 -281.583)"/><path d="M284.561,362.216h2.716V359.5h-2.716Zm.911-1.8h.893v.893h-.893Z" transform="translate(-267.272 -337.658)"/><path d="M346.979,299.8h-2.716v2.716h2.716Zm-.911,1.8h-.893v-.893h.893Z" transform="translate(-323.347 -281.583)"/><path d="M344.263,362.216h2.716V359.5h-2.716Zm.911-1.8h.893v.893h-.893Z" transform="translate(-323.347 -337.658)"/><path d="M406.681,299.8h-2.716v2.716h2.716Zm-.911,1.8h-.893v-.893h.893Z" transform="translate(-379.422 -281.583)"/><path d="M403.965,362.216h2.716V359.5h-2.716Zm.911-1.8h.893v.893h-.893Z" transform="translate(-379.422 -337.658)"/><path d="M138,112h.911v.911H138Z" transform="translate(-129.615 -105.196)"/><path d="M138,82h.911v.911H138Z" transform="translate(-129.615 -77.019)"/><path d="M329.263,224.8h.911v.911h-.911Z" transform="translate(-309.258 -211.14)"/><path d="M374.263,224.8h.911v.911h-.911Z" transform="translate(-351.524 -211.14)"/><path d="M30,467h.911v.911H30Z" transform="translate(-28.177 -438.627)"/><path d="M284.264,224.8h.911v.911h-.911Z" transform="translate(-266.993 -211.14)"/><path d="M411.649,467h4.274v.911h-4.274Z" transform="translate(-386.639 -438.627)"/><path d="M381.649,467h.911v.911h-.911Z" transform="translate(-358.462 -438.627)"/></svg>